inDegrees=yes
name=ik_S52_A12_T02
DataType=double
version=3
OpenSimVersion=4.3-2021-08-27-4bc7ad9
endheader
time	pelvis_tilt	pelvis_list	pelvis_rotation	pelvis_tx	pelvis_ty	pelvis_tz	hip_flexion_r	hip_adduction_r	hip_rotation_r	knee_angle_r	knee_angle_r_beta	ankle_angle_r	subtalar_angle_r	mtp_angle_r	hip_flexion_l	hip_adduction_l	hip_rotation_l	knee_angle_l	knee_angle_l_beta	ankle_angle_l	subtalar_angle_l	mtp_angle_l	lumbar_extension	lumbar_bending	lumbar_rotation	arm_flex_r	arm_add_r	arm_rot_r	elbow_flex_r	pro_sup_r	wrist_flex_r	wrist_dev_r	arm_flex_l	arm_add_l	arm_rot_l	elbow_flex_l	pro_sup_l	wrist_flex_l	wrist_dev_l
5.679999999999967	-1.758749233306337	-1.727216674645158	33.28554964747998	0	0.9399999999999999	0	44.40343933103755	-11.94055331068659	-11.68263045648862	50.76271743400087	0.8859765564828425	0	0	0	44.40343933103755	-11.94055331068659	-11.68263045648862	50.76271743400087	0.8859765564828425	0	0	0	-2.052958166692913	-0.5510992510707109	3.873335576044724	10.48359718062935	-6.8404150379927	-2.651921982346961	5.900893566395548	126.8606414669278	0	0	56.83533757793008	-26.449770946252	-2.690522754325268	18.38388213407004	99.52794935733657	0	0
5.699999999999966	-1.7417378160135	-1.694213515415659	33.17604853751177	0	0.9399999999999999	0	44.40377775304592	-11.93669990165638	-11.68048961343254	50.7643334105838	0.8860047605948497	0	0	0	44.40377775304592	-11.93669990165638	-11.68048961343254	50.7643334105838	0.8860047605948497	0	0	0	-2.019317344198899	-0.5389873585998081	3.911530594162051	10.43045786512312	-6.876241984719845	-2.571981887721557	5.916965958997547	126.601442172493	0	0	59.24554725045375	-26.59838367048213	-2.069206134821928	19.36299264588342	98.39039343280432	0	0
5.719999999999966	-1.732171011073619	-1.663513628382058	33.00497700073355	0	0.9399999999999999	0	44.40413142606787	-11.93267706956901	-11.67825330107757	50.76602186129128	0.8860342296189528	0	0	0	44.40413142606787	-11.93267706956901	-11.67825330107757	50.76602186129128	0.8860342296189528	0	0	0	-1.992902145343804	-0.5254064640203768	3.943348327020066	10.40581516618551	-6.906070270411329	-2.563205589680791	5.900422834057781	126.6724165717012	0	0	61.69924074509009	-26.78568336641466	-1.48630165438481	20.22293879084418	97.69243758635969	0	0
5.739999999999966	-1.750418094971397	-1.657133292066604	32.78595224644845	0	0.9399999999999999	0	44.40456482543348	-11.927751679264	-11.67551367269656	50.7680897718539	0.8860703214669075	0	0	0	44.40456482543348	-11.927751679264	-11.67551367269656	50.7680897718539	0.8860703214669075	0	0	0	-2.002882435290926	-0.5167554889295337	3.993869635216695	10.4626497926457	-6.903091737995789	-2.474716702727771	5.904826099274751	126.6949463444445	0	0	64.19355197096137	-26.99350820755713	-0.5478528054496492	21.18144881058053	97.26195931761835	0	0
5.759999999999965	-1.732583921748506	-1.587789941513533	32.45150662045244	0	0.9399999999999999	0	44.40482441132261	-11.92481362929182	-11.6738767798803	50.76933156128663	0.886091994781125	0	0	0	44.40482441132261	-11.92481362929182	-11.6738767798803	50.76933156128663	0.886091994781125	0	0	0	-1.950140395300936	-0.4692609419933224	4.00432154483457	10.39117395923665	-6.938805395619839	-2.304681356624893	5.903329164595432	126.7333684390697	0	0	66.38241873042438	-27.29255485651261	0.6591234559213767	20.71743578288308	96.66751397025119	0	0
5.779999999999965	-1.743280882890027	-1.579974057198768	32.24553459865312	0	0.9399999999999999	0	44.40510319497297	-11.92166352387201	-11.67212043213309	50.77066604823862	0.8861152859722621	0	0	0	44.40510319497297	-11.92166352387201	-11.67212043213309	50.77066604823862	0.8861152859722621	0	0	0	-1.949257021423571	-0.469101033475858	4.152860881152321	10.40769895047614	-6.94625533251306	-2.245288965849514	5.907427400660775	126.5535761902474	0	0	68.69367068630486	-27.38229952525778	2.494228003863558	21.96354164444571	95.43551989951938	0	0
5.799999999999964	-1.740476295026109	-1.5326133995999	32.01721027113695	0	0.9399999999999999	0	44.40550661674457	-11.91710693656752	-11.6695788733203	50.77259540627546	0.8861489596224548	0	0	0	44.40550661674457	-11.91710693656752	-11.6695788733203	50.77259540627546	0.8861489596224548	0	0	0	-1.921642722561324	-0.4305848338617999	4.228372089970785	10.39655525489691	-7.012351475296389	-2.326488080747208	5.864625033173143	126.6579646286324	0	0	68.57197203079075	-27.59638459221035	2.507138125766309	24.99549942897755	94.97201046561615	0	0
5.819999999999964	-1.758206488544287	-1.523050781184137	31.77095275296454	0	0.9399999999999999	0	44.40573753251289	-11.91450731211846	-11.66812694554899	50.77370199498693	0.8861682732389353	0	0	0	44.40573753251289	-11.91450731211846	-11.66812694554899	50.77370199498693	0.8861682732389353	0	0	0	-1.929426634584507	-0.4173697735893157	4.366435178774108	10.41291609792105	-7.046552304249133	-2.37911730633411	5.91610884872387	126.4672864651502	0	0	70.78431517713106	-27.62987822169827	4.340972665168858	24.82697678903547	93.89123545099712	0	0
5.839999999999963	-1.775392959403644	-1.518228199436855	31.36130532909149	0	0.9399999999999999	0	44.41316897328595	-11.8571307015283	-11.63117536915936	50.81990147998282	0.8869746063648394	0	0	0	44.41316897328595	-11.8571307015283	-11.63117536915936	50.81990147998282	0.8869746063648394	0	0	0	-1.947572960384651	-0.4174706149324315	4.651053219582047	10.44261118916013	-7.049569675539755	-2.36786762258727	5.917676473525453	126.4331590866177	0	0	75.08543119107775	-27.51221286530019	8.112543346494586	27.38030097369194	90.99213952849173	0	0
5.859999999999963	-1.791622459335101	-1.481669526592579	31.13490088383261	0	0.9399999999999999	0	44.41343051960327	-11.85423811173695	-11.62954650370332	50.82115551816284	0.8869964934600264	0	0	0	44.41343051960327	-11.85423811173695	-11.62954650370332	50.82115551816284	0.8869964934600264	0	0	0	-1.940291768425857	-0.3838776693440092	4.783204506206333	10.43427754101676	-7.108774928424571	-2.340634548660468	5.908781358679143	126.519553875432	0	0	77.12268218757862	-27.33129299784024	9.578998059027366	28.4767776925151	89.85570029749967	0	0
5.879999999999963	-1.798216719081721	-1.443181698295819	30.94381545149077	0	0.9399999999999999	0	44.41370274900224	-11.85122957974523	-11.62785161818499	50.8224605112974	0.8870192698869405	0	0	0	44.41370274900224	-11.85122957974523	-11.62785161818499	50.8224605112974	0.8870192698869405	0	0	0	-1.92226163590683	-0.355690532778827	4.910343219904816	10.40260834257047	-7.169315392188806	-2.311898720751871	5.921449168881701	126.4374568033358	0	0	79.09869510023677	-27.08381017707363	10.83416171642193	29.38123267370167	88.98488261534985	0	0
